<svg width="20" height="20" viewBox="0 0 20 20" fill="none" xmlns="http://www.w3.org/2000/svg">
<path d="M15 1.6665V3.33317M5 1.6665V3.33317" stroke="#001E62" stroke-width="1.5" stroke-linecap="round" stroke-linejoin="round"/>
<path d="M2.08325 10.2027C2.08325 6.57161 2.08325 4.75607 3.12668 3.62803C4.17012 2.5 5.84949 2.5 9.20825 2.5H10.7916C14.1503 2.5 15.8297 2.5 16.8732 3.62803C17.9166 4.75607 17.9166 6.57161 17.9166 10.2027V10.6306C17.9166 14.2617 17.9166 16.0773 16.8732 17.2053C15.8297 18.3333 14.1503 18.3333 10.7916 18.3333H9.20825C5.84949 18.3333 4.17012 18.3333 3.12668 17.2053C2.08325 16.0773 2.08325 14.2617 2.08325 10.6306V10.2027Z" stroke="#001E62" stroke-width="1.5" stroke-linecap="round" stroke-linejoin="round"/>
<path d="M5 6.6665H15" stroke="#001E62" stroke-width="1.5" stroke-linecap="round" stroke-linejoin="round"/>
<path d="M5.552 16C5.49867 16 5.45333 15.9813 5.416 15.944C5.37867 15.9067 5.36 15.8613 5.36 15.808V15.4C5.36 15.352 5.37067 15.296 5.392 15.232C5.41867 15.1627 5.47467 15.0933 5.56 15.024L6.824 13.768C7.176 13.4907 7.45867 13.256 7.672 13.064C7.89067 12.8667 8.048 12.688 8.144 12.528C8.24533 12.3627 8.296 12.2 8.296 12.04C8.296 11.8 8.22933 11.6053 8.096 11.456C7.968 11.3067 7.76267 11.232 7.48 11.232C7.29333 11.232 7.136 11.272 7.008 11.352C6.88 11.4267 6.77867 11.528 6.704 11.656C6.63467 11.784 6.58667 11.9253 6.56 12.08C6.54933 12.1493 6.52 12.1973 6.472 12.224C6.424 12.2507 6.376 12.264 6.328 12.264H5.616C5.568 12.264 5.528 12.248 5.496 12.216C5.464 12.184 5.448 12.1467 5.448 12.104C5.45333 11.8747 5.50133 11.6533 5.592 11.44C5.68267 11.2213 5.81333 11.0293 5.984 10.864C6.16 10.6933 6.37333 10.5573 6.624 10.456C6.87467 10.3547 7.15733 10.304 7.472 10.304C7.91467 10.304 8.28 10.3787 8.568 10.528C8.86133 10.6773 9.08 10.88 9.224 11.136C9.37333 11.392 9.448 11.68 9.448 12C9.448 12.2507 9.4 12.4827 9.304 12.696C9.208 12.904 9.06933 13.1067 8.888 13.304C8.70667 13.496 8.488 13.6933 8.232 13.896L7.096 15.048H9.376C9.43467 15.048 9.48 15.0667 9.512 15.104C9.54933 15.136 9.568 15.1813 9.568 15.24V15.808C9.568 15.8613 9.54933 15.9067 9.512 15.944C9.48 15.9813 9.43467 16 9.376 16H5.552ZM13.0584 16C13.0051 16 12.9598 15.9813 12.9224 15.944C12.8851 15.9067 12.8664 15.8613 12.8664 15.808V14.784H10.3304C10.2718 14.784 10.2238 14.7653 10.1864 14.728C10.1544 14.6907 10.1384 14.6453 10.1384 14.592V14.048C10.1384 14.016 10.1438 13.9787 10.1544 13.936C10.1704 13.888 10.1944 13.8453 10.2264 13.808L12.5864 10.536C12.6558 10.4453 12.7544 10.4 12.8824 10.4H13.7544C13.8078 10.4 13.8531 10.4187 13.8904 10.456C13.9278 10.4933 13.9464 10.5387 13.9464 10.592V13.84H14.6584C14.7224 13.84 14.7704 13.8587 14.8024 13.896C14.8398 13.928 14.8584 13.9733 14.8584 14.032V14.592C14.8584 14.6453 14.8398 14.6907 14.8024 14.728C14.7651 14.7653 14.7198 14.784 14.6664 14.784H13.9464V15.808C13.9464 15.8613 13.9278 15.9067 13.8904 15.944C13.8531 15.9813 13.8078 16 13.7544 16H13.0584ZM11.2504 13.872H12.8904V11.56L11.2504 13.872Z" fill="#001E62"/>
</svg>
