<svg width="19" height="19" viewBox="0 0 19 19" fill="none" xmlns="http://www.w3.org/2000/svg">
<path d="M2.23184 9.0353C1.44182 7.65775 1.06036 6.5329 0.830352 5.39268C0.490174 3.70631 1.26866 2.05901 2.55831 1.00789C3.10336 0.563652 3.72818 0.715432 4.05049 1.29367L4.77814 2.59909C5.3549 3.6338 5.64327 4.15116 5.58607 4.69966C5.52888 5.24816 5.13996 5.69488 4.36213 6.58834L2.23184 9.0353ZM2.23184 9.0353C3.83091 11.8236 6.34035 14.3344 9.13186 15.9353M9.13186 15.9353C10.5094 16.7253 11.6343 17.1068 12.7745 17.3368C14.4608 17.677 16.1082 16.8985 17.1593 15.6088C17.6035 15.0638 17.4517 14.439 16.8735 14.1167L15.5681 13.389C14.5334 12.8123 14.016 12.5239 13.4675 12.5811C12.919 12.6383 12.4723 13.0272 11.5788 13.805L9.13186 15.9353Z" stroke="#001E62" stroke-width="1.5" stroke-linejoin="round"/>
</svg>
