<svg width="16" height="16" viewBox="0 0 16 16" fill="none" xmlns="http://www.w3.org/2000/svg">
<g clip-path="url(#clip0_1161_4391)">
<path d="M4.66683 4C3.85307 4.00244 3.40271 4.02191 3.03265 4.17723C2.5143 4.3948 2.09217 4.79669 1.84557 5.3074C1.64428 5.72425 1.61134 6.25833 1.54547 7.32649L1.44224 9.0003C1.27842 11.6566 1.19651 12.9847 1.97595 13.8255C2.7554 14.6663 4.06851 14.6663 6.69474 14.6663H9.30558C11.9318 14.6663 13.2449 14.6663 14.0244 13.8255C14.8038 12.9847 14.7219 11.6566 14.5581 9.0003L14.4549 7.32649C14.389 6.25833 14.356 5.72425 14.1548 5.3074C13.9082 4.79669 13.486 4.3948 12.9677 4.17723C12.5976 4.02191 12.1473 4.00244 11.3335 4" stroke="#001E62" stroke-width="1.5" stroke-linecap="round"/>
<path d="M11.3332 4.66634L10.7426 3.18996C10.4878 2.55298 10.2661 1.83041 9.61093 1.50604C9.26144 1.33301 8.8409 1.33301 7.99984 1.33301C7.15877 1.33301 6.73824 1.33301 6.38874 1.50604C5.73357 1.83041 5.51185 2.55298 5.25706 3.18996L4.6665 4.66634" stroke="#001E62" stroke-width="1.5" stroke-linecap="round" stroke-linejoin="round"/>
<path d="M10.3332 9.33333C10.3332 10.622 9.2885 11.6667 7.99984 11.6667C6.71117 11.6667 5.6665 10.622 5.6665 9.33333C5.6665 8.04467 6.71117 7 7.99984 7C9.2885 7 10.3332 8.04467 10.3332 9.33333Z" stroke="#001E62" stroke-width="1.5"/>
<path d="M7.99987 4H8.00586" stroke="#001E62" stroke-width="2" stroke-linecap="round" stroke-linejoin="round"/>
</g>
<defs>
<clipPath id="clip0_1161_4391">
<rect width="16" height="16" fill="white"/>
</clipPath>
</defs>
</svg>
