<svg width="20" height="20" viewBox="0 0 20 20" fill="none" xmlns="http://www.w3.org/2000/svg">
<g clip-path="url(#clip0_1525_5536)">
<path d="M14.1216 2.64405C14.611 2.15466 14.8557 1.90996 15.1268 1.79294C15.5173 1.62436 15.9601 1.62436 16.3506 1.79294C16.6217 1.90996 16.8664 2.15466 17.3558 2.64405C17.8452 3.13344 18.0899 3.37813 18.2069 3.64921C18.3755 4.03975 18.3755 4.48254 18.2069 4.87308C18.0899 5.14416 17.8452 5.38885 17.3558 5.87824L13.1711 10.0629C12.1401 11.0939 11.6246 11.6094 10.979 11.9148C10.3334 12.2203 9.60786 12.2919 8.15686 12.435L7.5 12.4998L7.56481 11.843C7.70799 10.392 7.77957 9.66648 8.08501 9.02084C8.39045 8.37519 8.90594 7.8597 9.93693 6.8287L14.1216 2.64405Z" stroke="#202327" stroke-width="1.5" stroke-linejoin="round"/>
<path d="M4.99984 12.5H3.12484C2.31942 12.5 1.6665 13.1529 1.6665 13.9583C1.6665 14.7637 2.31942 15.4167 3.12484 15.4167H11.0415C11.8469 15.4167 12.4998 16.0696 12.4998 16.875C12.4998 17.6804 11.8469 18.3333 11.0415 18.3333H9.1665" stroke="#202327" stroke-width="1.5" stroke-linecap="round" stroke-linejoin="round"/>
</g>
<defs>
<clipPath id="clip0_1525_5536">
<rect width="20" height="20" fill="white"/>
</clipPath>
</defs>
</svg>
