<svg width="29" height="28" viewBox="0 0 29 28" fill="none" xmlns="http://www.w3.org/2000/svg">
<path d="M5.42895 10.5772C8.64718 4.88265 10.2563 2.03535 12.4643 1.30241C13.6791 0.899195 14.9876 0.899195 16.2023 1.30241C18.4104 2.03535 20.0195 4.88265 23.2377 10.5772C26.456 16.2718 28.0651 19.1191 27.5824 21.4391C27.3168 22.7155 26.6626 23.8731 25.7134 24.7463C23.988 26.3333 20.7698 26.3333 14.3333 26.3333C7.89686 26.3333 4.67863 26.3333 2.95328 24.7463C2.00411 23.8731 1.34985 22.7155 1.0843 21.4391C0.601592 19.1191 2.21071 16.2718 5.42895 10.5772Z" stroke="#FF0420" stroke-width="2"/>
<path d="M14.3227 19H14.3347" stroke="#FF0420" stroke-width="2.66667" stroke-linecap="round" stroke-linejoin="round"/>
<path d="M14.3333 15L14.3333 9.66667" stroke="#FF0420" stroke-width="2" stroke-linecap="round" stroke-linejoin="round"/>
</svg>
