<svg width="20" height="20" viewBox="0 0 20 20" fill="none" xmlns="http://www.w3.org/2000/svg">
<circle cx="6.25" cy="6.25" r="1.25" stroke="#001E62" stroke-width="1.5" stroke-linecap="round" stroke-linejoin="round"/>
<path d="M2.08325 10.0002C2.08325 6.26821 2.08325 4.40223 3.24262 3.24287C4.40199 2.0835 6.26797 2.0835 9.99992 2.0835C13.7319 2.0835 15.5978 2.0835 16.7572 3.24287C17.9166 4.40223 17.9166 6.26821 17.9166 10.0002C17.9166 13.7321 17.9166 15.5981 16.7572 16.7575C15.5978 17.9168 13.7319 17.9168 9.99992 17.9168C6.26797 17.9168 4.40199 17.9168 3.24262 16.7575C2.08325 15.5981 2.08325 13.7321 2.08325 10.0002Z" stroke="#001E62" stroke-width="1.5"/>
<path d="M4.16675 17.5C7.81046 13.1458 11.8951 7.40333 17.9146 11.2853" stroke="#001E62" stroke-width="1.5"/>
</svg>
